# xmcd
#
# Track frame offsets:
#	150
#	9867
#	20815
#	32472
#	43390
#	54252
#	67550
#	79932
#	90180
#	101342
#	111742
#	122700
#	132980
#	143940
#	156870
#	169075
#	182332
#	193605
#	206162
#	217260
#
# Disc length: 3067 seconds
#
# Revision: 1
# Processed by: cddbd v1.5.1PL0 Copyright (c) Steve Scherf et al.
# Submitted via: audiograbber 1.83.01
#
DISCID=120bf914
DTITLE=Jim and Jesse - 20 Great Songs by Jim and Jesse
DYEAR=1900
DGENRE=
TTITLE0=Air Mail Special
TTITLE1=Are You Mising Me
TTITLE2=Virgina Waltz
TTITLE3=Is It True
TTITLE4=Are You Lost In Sin
TTITLE5=Waiting For A Message
TTITLE6=My Darling In Heaven
TTITLE7=I Will Always Be Waiting For You
TTITLE8=I'll SeeYou Tonight
TTITLE9=Look For Me
TTITLE10=My Little Honeysuckle Rose
TTITLE11=A Memory Of You
TTITLE12=I'll Wash Your Love From My Heart
TTITLE13=My Garden Of Love
TTITLE14=I'll Wear The Banner
TTITLE15=Two Arms To Hold Me
TTITLE16=Too Many Tears
TTITLE17=Just Wondering Why
TTITLE18=Tears Of Regret
TTITLE19=Purple Heart
EXTD=
EXTT0=
EXTT1=
EXTT2=
EXTT3=
EXTT4=
EXTT5=
EXTT6=
EXTT7=
EXTT8=
EXTT9=
EXTT10=
EXTT11=
EXTT12=
EXTT13=
EXTT14=
EXTT15=
EXTT16=
EXTT17=
EXTT18=
EXTT19=
PLAYORDER=
